<?xml version="1.0" encoding="UTF-8" standalone="no"?>
<!DOCTYPE svg PUBLIC "-//W3C//DTD SVG 1.1//EN" "http://www.w3.org/Graphics/SVG/1.1/DTD/svg11.dtd">
<svg width="100%" height="100%" viewBox="0 0 1024 1024" version="1.1" xmlns="http://www.w3.org/2000/svg" xmlns:xlink="http://www.w3.org/1999/xlink" xml:space="preserve" xmlns:serif="http://www.serif.com/" style="fill-rule:evenodd;clip-rule:evenodd;stroke-linejoin:round;stroke-miterlimit:2;">
    <g transform="matrix(1.119118,0,0,1.047494,-14.527268,-93.115894)">
        <g id="レイヤー3">
            <path d="M455.785,701.031L352.869,495.705L194.957,810.75L119.798,810.75L352.869,344.608L507.968,654.808C510.209,659.999 512.726,665.026 515.499,669.868C539.567,711.895 582.932,739.965 632.385,739.965C680.188,739.965 722.303,713.737 746.798,674.027L821.171,674.027C791.251,754.106 717.961,810.75 632.385,810.75C615.233,810.75 598.575,808.475 582.66,804.191C528.431,789.595 482.838,751.681 455.785,701.031ZM450.967,495.89C484.469,425.147 553.162,376.601 632.385,376.601C716.701,376.601 789.09,431.59 819.821,509.803L744.557,509.803C719.782,472.071 678.761,447.386 632.385,447.386C562.332,447.386 504.496,503.711 496.421,576.248L450.967,495.89Z"/>
        </g>
    </g>
</svg>
